<svg class="svg-canvas" viewBox="0 0 800 600" width="1600" height="1200" preserveAspectRatio="none" version="1.1" xmlns="http://www.w3.org/2000/svg" xmlns:xlink="http://www.w3.org/1999/xlink">
        <!--滤镜-->
        <defs></defs>

        <!-- 背景 -->
        <g id="background">
            <rect x="0" y="0" fill="#ffffff" width="800" height="600"></rect>

          </g>

        <!--元素-->

                <g id="shape_C4V42wBDKu" ref="shape_C4V42wBDKu" key="shape_C4V42wBDKu" mask="">
                  <g transform="translate(39.15568345432902,66.04421512839897) rotate(0,409.60830656805103,261.60830656805103) scale(1,1)" style="opacity: 1;" filter="">
                    <!--普通元素-->
                    <svg xmlns="http://www.w3.org/2000/svg" version="1.1" xmlns:xlink="http://www.w3.org/1999/xlink" width="819.2166131361021" height="523.2166131361021" viewBox="0 0 819.2166131361021 523.2166131361021" data-ligature="true" data-parent="shape_C4V42wBDKu"><g data-role="text" data-width="382.4747" data-height="87" transform="translate(218.108306568051, 218.108306568051)"><path d="M29.08 0L4.73 0L4.73-8.65L26.90-8.65Q32.21-8.65 33.95-9.67L33.95-9.67Q36.50-11.20 36.50-14.25L36.50-14.25Q36.50-17.81 33.51-19.41L33.51-19.41Q31.84-20.36 28.13-20.36L28.13-20.36L19.12-20.36Q10.90-20.36 7.27-23.34L7.27-23.34Q5.02-25.23 3.74-28.06Q2.47-30.90 2.47-34.17L2.47-34.17Q2.47-39.26 5.45-43.47L5.45-43.47Q8.36-47.55 14.76-48.27L14.76-48.27Q16.94-48.49 21.23-48.49L21.23-48.49L45.29-48.49L45.29-39.84L23.55-39.84Q18.68-39.77 17.08-39.40L17.08-39.40Q13.81-38.60 13.81-34.46L13.81-34.46Q13.81-30.97 16.58-29.81L16.58-29.81Q18.39-28.93 22.68-28.93L22.68-28.93L30.46-28.93Q36.42-28.93 39.33-27.92L39.33-27.92Q44.49-26.17 46.46-21.81L46.46-21.81Q47.98-18.32 47.98-14.32L47.98-14.32Q47.98-9.89 45.95-6.40L45.95-6.40Q43.11-1.45 37.44-0.44L37.44-0.44Q34.68 0 29.08 0L29.08 0Z" transform="translate(0 69) " fill="rgb(40, 0, 123)" stroke="rgb(40, 0, 123)" stroke-width="0.121" data-glyph-w="50.5265" data-glyph-h="72.7" data-glyph-ascender="62.4493" data-glyph-descender="-10.2507" data-kerning="0"></path><path d="M4.73 0L4.73-35.40L40.49-35.40Q45.36-35.40 47.91-34.68Q50.45-33.95 52.20-32.13L52.20-32.13Q55.40-28.64 55.40-22.54L55.40-22.54L55.40 0L45.66 0L45.66-21.01Q45.66-23.55 45.44-24.57Q45.22-25.59 44.42-26.39L44.42-26.39Q42.89-27.84 39.84-27.84L39.84-27.84L34.68-27.84L34.68 0L24.94 0L24.94-27.84L14.47-27.84L14.47 0L4.73 0Z" transform="translate(50.5265 69) " fill="rgb(40, 0, 123)" stroke="rgb(40, 0, 123)" stroke-width="0.121" data-glyph-w="59.7594" data-glyph-h="72.7" data-glyph-ascender="62.4493" data-glyph-descender="-10.2507" data-kerning="0"></path><path d="M17.23-21.52L29.15-21.52Q29.15-25.23 27.66-26.54Q26.17-27.84 21.74-27.84L21.74-27.84L5.31-27.84L5.31-35.40L21.74-35.40Q26.17-35.40 27.84-35.22Q29.52-35.04 31.26-34.53L31.26-34.53Q39.33-31.48 38.89-19.92L38.89-19.92L38.89 0L18.39 0Q12.87 0 10.76-0.33Q8.65-0.65 7.05-1.67L7.05-1.67Q2.76-4.58 2.76-10.47L2.76-10.47Q2.76-14.03 4.47-16.83Q6.18-19.63 9.01-20.65L9.01-20.65Q11.49-21.52 17.23-21.52L17.23-21.52ZM29.15-7.56L29.15-13.96L17.96-13.96L16.28-13.96Q14.61-13.96 13.63-13.09Q12.65-12.21 12.65-10.69L12.65-10.69Q12.65-9.01 13.85-8.29Q15.05-7.56 17.96-7.56L17.96-7.56L29.15-7.56Z" transform="translate(110.2859 69) " fill="rgb(40, 0, 123)" stroke="rgb(40, 0, 123)" stroke-width="0.121" data-glyph-w="43.2565" data-glyph-h="72.7" data-glyph-ascender="62.4493" data-glyph-descender="-10.2507" data-kerning="0"></path><path d="M4.73 0L4.73-35.40L19.12-35.40Q23.55-35.40 25.99-34.79Q28.43-34.17 30.03-32.72L30.03-32.72Q31.62-31.26 32.28-29.08Q32.93-26.90 32.93-22.83L32.93-22.83L32.93-19.41L23.55-19.41L23.55-21.30Q23.55-25.08 22.25-26.46Q20.94-27.84 17.23-27.84L17.23-27.84L14.47-27.84L14.47 0L4.73 0Z" transform="translate(153.5424 69) " fill="rgb(40, 0, 123)" stroke="rgb(40, 0, 123)" stroke-width="0.121" data-glyph-w="34.0236" data-glyph-h="72.7" data-glyph-ascender="62.4493" data-glyph-descender="-10.2507" data-kerning="0"></path><path d="M1.16-35.40L7.34-35.40L7.34-48.49L17.08-48.49L17.08-35.40L26.10-35.40L26.10-27.84L17.08-27.84L17.08-14.98Q17.08-10.47 17.88-9.31L17.88-9.31Q19.12-7.56 22.25-7.56L22.25-7.56L26.10-7.56L26.10 0L19.05 0Q12.72 0 10.03-3.05Q7.34-6.11 7.34-13.30L7.34-13.30L7.34-27.84L1.16-27.84L1.16-35.40Z" transform="translate(187.56599999999997 69) " fill="rgb(40, 0, 123)" stroke="rgb(40, 0, 123)" stroke-width="0.121" data-glyph-w="27.9895" data-glyph-h="72.7" data-glyph-ascender="62.4493" data-glyph-descender="-10.2507" data-kerning="0"></path><path d="M12.29 0L0.22 0L20.28-48.49L32.13-48.49L52.20 0L40.13 0L35.40-11.20L17.01-11.20L12.29 0ZM33.15-19.85L26.24-36.79L19.34-19.85L33.15-19.85Z" transform="translate(215.55549999999997 69) " fill="rgb(40, 0, 123)" stroke="rgb(40, 0, 123)" stroke-width="0.121" data-glyph-w="52.4894" data-glyph-h="72.7" data-glyph-ascender="62.4493" data-glyph-descender="-10.2507" data-kerning="0"></path><path d="M31.84-16.94L15.27-16.94L15.27 0L4.94 0L4.94-48.49L29.15-48.49Q35.77-48.49 38.60-47.55L38.60-47.55Q43.40-45.95 46.16-40.93L46.16-40.93Q48.20-37.15 48.20-32.72L48.20-32.72Q48.20-29.01 46.86-25.70Q45.51-22.39 43.11-20.28L43.11-20.28Q40.93-18.39 38.49-17.67Q36.06-16.94 31.84-16.94L31.84-16.94ZM15.27-39.84L15.27-25.59L29.30-25.59Q33.08-25.59 34.61-26.75L34.61-26.75Q36.86-28.57 36.86-33.08L36.86-33.08Q36.86-37.95 33.44-39.33L33.44-39.33Q32.21-39.84 29.52-39.84L29.52-39.84L15.27-39.84Z" transform="translate(268.0449 69) " fill="rgb(40, 0, 123)" stroke="rgb(40, 0, 123)" stroke-width="0.121" data-glyph-w="49.7995" data-glyph-h="72.7" data-glyph-ascender="62.4493" data-glyph-descender="-10.2507" data-kerning="0"></path><path d="M4.73-48.49L19.77-48.49L31.84-10.61L44.57-48.49L59.61-48.49L59.61 0L49.80 0L49.80-36.35L37.15 0L26.54 0L14.54-36.35L14.54 0L4.73 0L4.73-48.49Z" transform="translate(317.8444 69) " fill="rgb(40, 0, 123)" stroke="rgb(40, 0, 123)" stroke-width="0.121" data-glyph-w="64.6303" data-glyph-h="72.7" data-glyph-ascender="62.4493" data-glyph-descender="-10.2507" data-kerning="0"></path></g></svg>
                  </g>
                </g>
                <g id="shape_l8SRQQAi7C" ref="shape_l8SRQQAi7C" key="shape_l8SRQQAi7C" mask="">
                  <g transform="translate(205.95529154637808,212.84382322044797) rotate(0,151.308698476002,71.308698476002) scale(1,1)" style="opacity: 1;" filter="">
                    <!--普通元素-->
                    <svg xmlns="http://www.w3.org/2000/svg" version="1.1" xmlns:xlink="http://www.w3.org/1999/xlink" width="302.617396952004" height="142.617396952004" viewBox="0 0 302.617396952004 142.617396952004" data-ligature="true" data-parent="shape_l8SRQQAi7C"><g data-role="text" data-width="128.51953125" data-height="23" transform="translate(59.80869847600199, 59.80869847600199)"><path d="M1.54-6.42Q1.24-7.46 0.98-8.06L0.98-8.06Q1.38-8.18 1.95-9.65L1.95-9.65Q2.39-10.79 2.91-12.78L2.91-12.78L0.90-12.78L0.90-14.56L3.33-14.56Q3.61-15.69 3.75-16.83L3.75-16.83L5.54-16.49Q5.34-15.45 5.12-14.56L5.12-14.56L8.49-14.56L8.49-12.78L4.67-12.78Q3.97-10.39 3.15-8.41L3.15-8.41L4.75-8.41L4.75-11.41L6.48-11.41L6.48-8.41L8.31-8.41L8.31-6.72L6.48-6.72L6.48-4.41L8.43-4.75L8.53-3.09L6.48-2.69L6.48 1.58L4.75 1.58L4.75-2.35L1.08-1.66L0.70-3.49L4.75-4.13L4.75-6.72L3.05-6.72Q1.83-6.72 1.54-6.42L1.54-6.42ZM9.33-15.81L16.55-15.81L16.91-15.89L18.23-15.21Q17.19-12.82 15.15-10.89L15.15-10.89Q17.89-9.57 19.08-8.75L19.08-8.75L17.97-7.24Q16.53-8.30 13.76-9.69L13.76-9.69Q11.86-8.24 9.39-7.20L9.39-7.20Q8.95-8.04 8.22-8.77L8.22-8.77Q12.96-10.47 15.39-14.08L15.39-14.08L9.33-14.08L9.33-15.81ZM9.37-6.66L18.21-6.66L18.21-4.95L14.78-4.95L14.78-0.58L19.08-0.58L19.08 1.18L8.31 1.18L8.31-0.58L12.88-0.58L12.88-4.95L9.37-4.95L9.37-6.66Z" transform="translate(0 20) " fill="rgb(40, 0, 123)" stroke="rgb(40, 0, 123)" stroke-width="0.033" data-glyph-w="19.94" data-glyph-h="28.873120000000004" data-glyph-ascender="23.1304" data-glyph-descender="-5.742720000000001" data-kerning="0"></path><path d="M10.65-16.21L12.60-15.83Q11.39-10.55 9.07-7.56L9.07-7.56Q8.30-8.22 7.40-8.67L7.40-8.67Q9.63-11.23 10.65-16.21L10.65-16.21ZM14.08-16.01L15.85-16.43Q17.01-11.92 19.20-9.19L19.20-9.19Q18.17-8.41 17.75-7.60L17.75-7.60Q15.35-10.77 14.08-16.01L14.08-16.01ZM3.73-16.83L5.56-16.83L5.56-12.74L8.00-12.74L8.00-10.97L5.56-10.97L5.56-10.21Q7.06-8.28 8.47-6.04L8.47-6.04L7.16-4.53Q6.68-5.60 5.56-7.64L5.56-7.64L5.56 1.66L3.73 1.66L3.73-6.94Q2.71-3.67 1.48-1.89L1.48-1.89Q1.16-2.83 0.54-3.75L0.54-3.75Q2.47-6.22 3.57-10.97L3.57-10.97L0.80-10.97L0.80-12.74L3.73-12.74L3.73-16.83ZM14.50-4.99L16.09-5.64Q18.13-2.01 18.88 0.54L18.88 0.54L17.15 1.34Q16.95 0.66 16.67-0.14L16.67-0.14Q9.35 0.82 8.61 1.16L8.61 1.16L8.59 1.16L8.59 1.08Q8.18-0.16 7.94-0.72L7.94-0.72Q8.51-0.90 9.27-2.45L9.27-2.45Q11.03-5.48 12.24-10.45L12.24-10.45L14.24-9.73Q12.94-5.32 10.75-1.22L10.75-1.22L16.01-1.79Q15.35-3.37 14.50-4.99L14.50-4.99Z" transform="translate(19.94 20) " fill="rgb(40, 0, 123)" stroke="rgb(40, 0, 123)" stroke-width="0.033" data-glyph-w="19.94" data-glyph-h="28.873120000000004" data-glyph-ascender="23.1304" data-glyph-descender="-5.742720000000001" data-kerning="0"></path><path d="M4.29-7.56L6.20-7.38Q6.04-6.20 5.74-4.83L5.74-4.83Q6.70-2.23 8.97-1.24L8.97-1.24L8.97-8.89L4.31-8.89L4.31-10.69L15.69-10.69L15.69-8.89L10.93-8.89L10.93-6.00L16.69-6.00L16.69-4.23L10.93-4.23L10.93-0.70Q12.06-0.52 13.80-0.52L13.80-0.52Q18.07-0.52 19.22-0.54L19.22-0.54Q18.68 0.24 18.52 1.38L18.52 1.38L13.70 1.38Q10.43 1.38 8.55 0.64L8.55 0.64Q6.30-0.24 5.00-2.49L5.00-2.49Q3.99 0.12 2.15 1.71L2.15 1.71Q1.48 1.00 0.64 0.46L0.64 0.46Q3.63-1.79 4.29-7.56L4.29-7.56ZM8.33-16.47L10.21-17.01Q11.03-15.61 11.33-14.66L11.33-14.66L18.40-14.66L18.40-9.99L16.47-9.99L16.47-12.86L3.39-12.86L3.39-9.99L1.54-9.99L1.54-14.66L9.15-14.66Q8.81-15.57 8.33-16.47L8.33-16.47Z" transform="translate(39.88 20) " fill="rgb(40, 0, 123)" stroke="rgb(40, 0, 123)" stroke-width="0.033" data-glyph-w="19.94" data-glyph-h="28.873120000000004" data-glyph-ascender="23.1304" data-glyph-descender="-5.742720000000001" data-kerning="0"></path><path d="M7.30-13.32L18.28-13.32L18.28-11.49L7.30-11.49L7.30-13.32ZM8.55-10.15L10.27-10.53Q11.31-6.00 11.70-2.25L11.70-2.25L9.83-1.71Q9.55-5.48 8.55-10.15L8.55-10.15ZM11.21-16.59L13.00-17.05Q13.76-15.07 14.02-13.96L14.02-13.96L12.14-13.42Q11.88-14.84 11.21-16.59L11.21-16.59ZM6.50-0.96L13.48-0.96Q14.74-5.46 15.29-10.65L15.29-10.65L17.27-10.33Q16.39-5.20 15.25-0.96L15.25-0.96L19.04-0.96L19.04 0.86L6.50 0.86L6.50-0.96ZM5.46-16.75L7.24-16.21Q6.36-13.96 5.28-12.04L5.28-12.04L5.28 1.66L3.39 1.66L3.39-9.07Q2.55-7.96 1.73-7.08L1.73-7.08Q1.30-8.20 0.68-8.99L0.68-8.99Q3.73-12.02 5.46-16.75L5.46-16.75Z" transform="translate(59.82000000000001 20) " fill="rgb(40, 0, 123)" stroke="rgb(40, 0, 123)" stroke-width="0.033" data-glyph-w="19.94" data-glyph-h="28.873120000000004" data-glyph-ascender="23.1304" data-glyph-descender="-5.742720000000001" data-kerning="0"></path><path d="M12.18-11.41L12.16-11.37Q12.86-7.80 14.10-5.30L14.10-5.30Q15.37-7.70 15.95-11.41L15.95-11.41L12.18-11.41ZM1.58-7.88L4.33-7.88L4.33-11.29L0.74-11.29L0.74-13.04L4.33-13.04L4.33-16.83L6.22-16.83L6.22-13.04L9.67-13.04L9.67-11.29L6.22-11.29L6.22-7.88L8.71-7.88L8.22-8.22Q10.65-10.95 11.68-16.85L11.68-16.85L13.60-16.53Q13.28-14.90 12.78-13.20L12.78-13.20L19.24-13.20L19.24-11.41L17.85-11.41Q17.03-6.50 15.17-3.51L15.17-3.51Q16.87-1.08 19.42 0.06L19.42 0.06Q18.62 0.76 18.11 1.67L18.11 1.67Q15.67 0.46 13.98-1.87L13.98-1.87Q12.04 0.34 9.07 1.67L9.07 1.67Q8.77 0.96 8.02 0L8.02 0Q11.17-1.28 12.94-3.53L12.94-3.53Q11.76-5.74 10.99-8.77L10.99-8.77Q10.47-7.84 9.81-6.98L9.81-6.98Q9.53-7.26 8.93-7.72L8.93-7.72L8.93-0.48L3.33-0.48L3.33 0.80L1.58 0.80L1.58-7.88ZM3.33-6.10L3.33-2.25L7.14-2.25L7.14-6.10L3.33-6.10Z" transform="translate(79.76 20) " fill="rgb(40, 0, 123)" stroke="rgb(40, 0, 123)" stroke-width="0.033" data-glyph-w="19.94" data-glyph-h="28.873120000000004" data-glyph-ascender="23.1304" data-glyph-descender="-5.742720000000001" data-kerning="0"></path><path d="M10.19-6.24L10.19-5.12L15.97-5.12L15.97-6.24L10.19-6.24ZM10.19-8.45L10.19-7.36L15.97-7.36L15.97-8.45L10.19-8.45ZM8.43-9.69L17.79-9.69L17.79-3.89L14.14-3.89L14.14-2.67L19.12-2.67L19.12-1.10L14.14-1.10L14.14 1.66L12.28 1.66L12.28-1.10L7.16-1.10L7.16-2.67L12.28-2.67L12.28-3.89L8.43-3.89L8.43-9.69ZM11.74-16.51L13.42-16.95Q13.82-16.11 14.04-15.33L14.04-15.33L18.36-15.33L18.36-13.84L11.25-13.84Q11.64-12.98 11.86-12.32L11.86-12.32L11.41-12.18L14.30-12.18Q14.76-13.30 14.92-13.84L14.92-13.84L16.75-13.48L16.07-12.18L19.04-12.18L19.04-10.69L7.12-10.69L7.12-12.18L10.11-12.18Q9.83-13.06 9.61-13.54L9.61-13.54L10.73-13.84L7.94-13.84L7.94-15.33L12.16-15.33Q12.02-15.77 11.74-16.51L11.74-16.51ZM1.30-16.03L5.98-16.03L6.26-16.11L7.48-15.39Q6.30-12.02 5.52-10.19L5.52-10.19Q7.22-8.26 7.26-5.90L7.26-5.90Q7.26-4.09 6.40-3.45L6.40-3.45Q6.00-3.15 5.28-3.05L5.28-3.05Q4.77-2.97 3.91-3.01L3.91-3.01Q3.87-3.93 3.47-4.67L3.47-4.67Q4.01-4.59 4.57-4.63L4.57-4.63Q4.97-4.67 5.18-4.81L5.18-4.81Q5.58-5.08 5.58-6.10L5.58-6.10Q5.58-8.12 3.85-9.99L3.85-9.99Q4.41-11.39 5.32-14.34L5.32-14.34L2.97-14.34L2.97 1.62L1.30 1.62L1.30-16.03Z" transform="translate(99.7 20) " fill="rgb(40, 0, 123)" stroke="rgb(40, 0, 123)" stroke-width="0.033" data-glyph-w="19.94" data-glyph-h="28.873120000000004" data-glyph-ascender="23.1304" data-glyph-descender="-5.742720000000001" data-kerning="0"></path><path d="M0,0Z" transform="translate(119.64 20) " fill="rgb(40, 0, 123)" stroke="rgb(40, 0, 123)" stroke-width="0.033" data-glyph-w="4.9460546875" data-glyph-h="20.77732421875" data-glyph-ascender="16.7075390625" data-glyph-descender="-4.06978515625" data-kerning="0"></path><path d="M2.97-16.20L2.97-6.77L0.98-6.77L0.98-16.20L2.97-16.20ZM1.98-4.53Q2.48-4.53 2.85-4.17L2.85-4.17Q3.21-3.80 3.21-3.29L3.21-3.29Q3.21-2.77 2.85-2.40L2.85-2.40Q2.48-2.04 1.98-2.04L1.98-2.04Q1.46-2.04 1.09-2.40L1.09-2.40Q0.73-2.77 0.73-3.29L0.73-3.29Q0.73-3.80 1.09-4.17L1.09-4.17Q1.46-4.53 1.98-4.53L1.98-4.53Z" transform="translate(124.5860546875 20) " fill="rgb(40, 0, 123)" stroke="rgb(40, 0, 123)" stroke-width="0.033" data-glyph-w="3.9334765625" data-glyph-h="20.77732421875" data-glyph-ascender="16.7075390625" data-glyph-descender="-4.06978515625" data-kerning="0"></path></g></svg>
                  </g>
                </g>
                <g id="shape_YJmJFVqADP" ref="shape_YJmJFVqADP" key="shape_YJmJFVqADP" mask="">
                  <g transform="translate(160,226.00674437687) rotate(0,51.283152234626,69.645777319578) scale(1,1)" style="opacity: 1;" filter="">
                    <!--普通元素-->
                    <svg version="1.1" id="图层_1" xmlns="http://www.w3.org/2000/svg" xmlns:xlink="http://www.w3.org/1999/xlink" x="0px" y="0px" width="102.56630446925" height="139.29155463916" viewBox="0 0 318.1 432" style="enable-background:new 0 0 318.1 432;" xml:space="preserve" class="style-removed" preserveAspectRatio="none" data-parent="shape_YJmJFVqADP">

<g id="shape_Pbk265qhEy_ZIBpsYJfEM" transform="translate(120,189.64317165099) rotate(0,70.816161189192,98.827010461797) scale(1,1)">
	<g>
		<polygon points="149.8,6.2 76.1,49.5 53.6,37.4 53.6,-48.4 		" fill="#07C79C" stroke-width="0"></polygon>
		<polygon points="53.6,-147.8 53.6,-48.4 -25.9,-5.3 76.1,49.5 -9.1,99.4 -106.6,44.6 -106.6,-52.6 		" fill="#28007B" stroke-width="0"></polygon>
		<polygon points="149.8,6.2 149.8,106.1 -61.3,226.8 -61.3,130.1 68.9,53.7 		" fill="#109594" stroke-width="0"></polygon>
		<polygon points="72.8,-65.9 72.8,-168.5 156,-117.2 		" fill="#02F9A5" stroke-width="0"></polygon>
		<polygon points="176.7,-109.5 176.7,-26.3 109.1,-68 		" fill="#02F9A5" stroke-width="0"></polygon>
	</g>
</g>
</svg>
                  </g>
                </g>
      </svg>
