<svg class="svg-canvas" viewBox="0 0 800 600" width="1600" height="1200" preserveAspectRatio="none" version="1.1" xmlns="http://www.w3.org/2000/svg" xmlns:xlink="http://www.w3.org/1999/xlink">
        <!--滤镜-->
        <defs></defs>

        <!-- 背景 -->
        <g id="background">
            <rect x="0" y="0" fill="#ffffff" width="800" height="600"></rect>
            
          </g>

        <!--元素-->
        
                <g id="shape_C4V42wBDKu" ref="shape_C4V42wBDKu" key="shape_C4V42wBDKu" mask="">
                  <g transform="translate(39.15568345432902,66.04421512839897) rotate(0,409.60830656805103,261.60830656805103) scale(1,1)" style="opacity: 1;" filter="">
                    <!--普通元素-->
                    <svg xmlns="http://www.w3.org/2000/svg" version="1.1" xmlns:xlink="http://www.w3.org/1999/xlink" width="819.2166131361021" height="523.2166131361021" viewBox="0 0 819.2166131361021 523.2166131361021" data-ligature="true" data-parent="shape_C4V42wBDKu"><g data-role="text" data-width="382.4747" data-height="87" transform="translate(218.108306568051, 218.108306568051)"><path d="M29.08 0L4.73 0L4.73-8.65L26.90-8.65Q32.21-8.65 33.95-9.67L33.95-9.67Q36.50-11.20 36.50-14.25L36.50-14.25Q36.50-17.81 33.51-19.41L33.51-19.41Q31.84-20.36 28.13-20.36L28.13-20.36L19.12-20.36Q10.90-20.36 7.27-23.34L7.27-23.34Q5.02-25.23 3.74-28.06Q2.47-30.90 2.47-34.17L2.47-34.17Q2.47-39.26 5.45-43.47L5.45-43.47Q8.36-47.55 14.76-48.27L14.76-48.27Q16.94-48.49 21.23-48.49L21.23-48.49L45.29-48.49L45.29-39.84L23.55-39.84Q18.68-39.77 17.08-39.40L17.08-39.40Q13.81-38.60 13.81-34.46L13.81-34.46Q13.81-30.97 16.58-29.81L16.58-29.81Q18.39-28.93 22.68-28.93L22.68-28.93L30.46-28.93Q36.42-28.93 39.33-27.92L39.33-27.92Q44.49-26.17 46.46-21.81L46.46-21.81Q47.98-18.32 47.98-14.32L47.98-14.32Q47.98-9.89 45.95-6.40L45.95-6.40Q43.11-1.45 37.44-0.44L37.44-0.44Q34.68 0 29.08 0L29.08 0Z" transform="translate(0 69) " fill="rgb(40, 0, 123)" stroke="rgb(40, 0, 123)" stroke-width="0.121" data-glyph-w="50.5265" data-glyph-h="72.7" data-glyph-ascender="62.4493" data-glyph-descender="-10.2507" data-kerning="0"></path><path d="M4.73 0L4.73-35.40L40.49-35.40Q45.36-35.40 47.91-34.68Q50.45-33.95 52.20-32.13L52.20-32.13Q55.40-28.64 55.40-22.54L55.40-22.54L55.40 0L45.66 0L45.66-21.01Q45.66-23.55 45.44-24.57Q45.22-25.59 44.42-26.39L44.42-26.39Q42.89-27.84 39.84-27.84L39.84-27.84L34.68-27.84L34.68 0L24.94 0L24.94-27.84L14.47-27.84L14.47 0L4.73 0Z" transform="translate(50.5265 69) " fill="rgb(40, 0, 123)" stroke="rgb(40, 0, 123)" stroke-width="0.121" data-glyph-w="59.7594" data-glyph-h="72.7" data-glyph-ascender="62.4493" data-glyph-descender="-10.2507" data-kerning="0"></path><path d="M17.23-21.52L29.15-21.52Q29.15-25.23 27.66-26.54Q26.17-27.84 21.74-27.84L21.74-27.84L5.31-27.84L5.31-35.40L21.74-35.40Q26.17-35.40 27.84-35.22Q29.52-35.04 31.26-34.53L31.26-34.53Q39.33-31.48 38.89-19.92L38.89-19.92L38.89 0L18.39 0Q12.87 0 10.76-0.33Q8.65-0.65 7.05-1.67L7.05-1.67Q2.76-4.58 2.76-10.47L2.76-10.47Q2.76-14.03 4.47-16.83Q6.18-19.63 9.01-20.65L9.01-20.65Q11.49-21.52 17.23-21.52L17.23-21.52ZM29.15-7.56L29.15-13.96L17.96-13.96L16.28-13.96Q14.61-13.96 13.63-13.09Q12.65-12.21 12.65-10.69L12.65-10.69Q12.65-9.01 13.85-8.29Q15.05-7.56 17.96-7.56L17.96-7.56L29.15-7.56Z" transform="translate(110.2859 69) " fill="rgb(40, 0, 123)" stroke="rgb(40, 0, 123)" stroke-width="0.121" data-glyph-w="43.2565" data-glyph-h="72.7" data-glyph-ascender="62.4493" data-glyph-descender="-10.2507" data-kerning="0"></path><path d="M4.73 0L4.73-35.40L19.12-35.40Q23.55-35.40 25.99-34.79Q28.43-34.17 30.03-32.72L30.03-32.72Q31.62-31.26 32.28-29.08Q32.93-26.90 32.93-22.83L32.93-22.83L32.93-19.41L23.55-19.41L23.55-21.30Q23.55-25.08 22.25-26.46Q20.94-27.84 17.23-27.84L17.23-27.84L14.47-27.84L14.47 0L4.73 0Z" transform="translate(153.5424 69) " fill="rgb(40, 0, 123)" stroke="rgb(40, 0, 123)" stroke-width="0.121" data-glyph-w="34.0236" data-glyph-h="72.7" data-glyph-ascender="62.4493" data-glyph-descender="-10.2507" data-kerning="0"></path><path d="M1.16-35.40L7.34-35.40L7.34-48.49L17.08-48.49L17.08-35.40L26.10-35.40L26.10-27.84L17.08-27.84L17.08-14.98Q17.08-10.47 17.88-9.31L17.88-9.31Q19.12-7.56 22.25-7.56L22.25-7.56L26.10-7.56L26.10 0L19.05 0Q12.72 0 10.03-3.05Q7.34-6.11 7.34-13.30L7.34-13.30L7.34-27.84L1.16-27.84L1.16-35.40Z" transform="translate(187.56599999999997 69) " fill="rgb(40, 0, 123)" stroke="rgb(40, 0, 123)" stroke-width="0.121" data-glyph-w="27.9895" data-glyph-h="72.7" data-glyph-ascender="62.4493" data-glyph-descender="-10.2507" data-kerning="0"></path><path d="M12.29 0L0.22 0L20.28-48.49L32.13-48.49L52.20 0L40.13 0L35.40-11.20L17.01-11.20L12.29 0ZM33.15-19.85L26.24-36.79L19.34-19.85L33.15-19.85Z" transform="translate(215.55549999999997 69) " fill="rgb(40, 0, 123)" stroke="rgb(40, 0, 123)" stroke-width="0.121" data-glyph-w="52.4894" data-glyph-h="72.7" data-glyph-ascender="62.4493" data-glyph-descender="-10.2507" data-kerning="0"></path><path d="M31.84-16.94L15.27-16.94L15.27 0L4.94 0L4.94-48.49L29.15-48.49Q35.77-48.49 38.60-47.55L38.60-47.55Q43.40-45.95 46.16-40.93L46.16-40.93Q48.20-37.15 48.20-32.72L48.20-32.72Q48.20-29.01 46.86-25.70Q45.51-22.39 43.11-20.28L43.11-20.28Q40.93-18.39 38.49-17.67Q36.06-16.94 31.84-16.94L31.84-16.94ZM15.27-39.84L15.27-25.59L29.30-25.59Q33.08-25.59 34.61-26.75L34.61-26.75Q36.86-28.57 36.86-33.08L36.86-33.08Q36.86-37.95 33.44-39.33L33.44-39.33Q32.21-39.84 29.52-39.84L29.52-39.84L15.27-39.84Z" transform="translate(268.0449 69) " fill="rgb(40, 0, 123)" stroke="rgb(40, 0, 123)" stroke-width="0.121" data-glyph-w="49.7995" data-glyph-h="72.7" data-glyph-ascender="62.4493" data-glyph-descender="-10.2507" data-kerning="0"></path><path d="M4.73-48.49L19.77-48.49L31.84-10.61L44.57-48.49L59.61-48.49L59.61 0L49.80 0L49.80-36.35L37.15 0L26.54 0L14.54-36.35L14.54 0L4.73 0L4.73-48.49Z" transform="translate(317.8444 69) " fill="rgb(40, 0, 123)" stroke="rgb(40, 0, 123)" stroke-width="0.121" data-glyph-w="64.6303" data-glyph-h="72.7" data-glyph-ascender="62.4493" data-glyph-descender="-10.2507" data-kerning="0"></path></g></svg>
                  </g>
                </g>
                <g id="shape_l8SRQQAi7C" ref="shape_l8SRQQAi7C" key="shape_l8SRQQAi7C" mask="">
                  <g transform="translate(202.75760599324798,212.84382322044797) rotate(0,151.308698476002,71.308698476002) scale(1,1)" style="opacity: 1;" filter="">
                    <!--普通元素-->
                    <svg xmlns="http://www.w3.org/2000/svg" version="1.1" xmlns:xlink="http://www.w3.org/1999/xlink" width="302.617396952004" height="142.617396952004" viewBox="0 0 302.617396952004 142.617396952004" data-ligature="true" data-parent="shape_l8SRQQAi7C"><g data-role="text" data-width="172.49852539062502" data-height="23" transform="translate(59.80869847600199, 59.80869847600199)"><path d="M0.97-2.30L9.42-2.30L9.42-4.28L2.96-4.28L2.96-16.20L0.97-16.20L0.97-2.30Z" transform="translate(0 17) " fill="rgb(40, 0, 123)" stroke="rgb(40, 0, 123)" stroke-width="0.033" data-glyph-w="9.999208984375" data-glyph-h="20.77732421875" data-glyph-ascender="16.7075390625" data-glyph-descender="-4.06978515625" data-kerning="0"></path><path d="M5.35-11.98Q7.41-11.98 8.87-10.52L8.87-10.52Q10.32-9.07 10.32-7.01L10.32-7.01Q10.32-4.96 8.87-3.51L8.87-3.51Q7.41-2.04 5.35-2.04L5.35-2.04Q3.30-2.04 1.84-3.51L1.84-3.51Q0.39-4.96 0.39-7.01L0.39-7.01Q0.39-9.07 1.84-10.52L1.84-10.52Q3.30-11.98 5.35-11.98L5.35-11.98ZM5.35-9.99L5.35-9.99Q4.12-9.99 3.25-9.12L3.25-9.12Q2.38-8.25 2.38-7.01L2.38-7.01Q2.38-5.77 3.25-4.91L3.25-4.91Q4.12-4.03 5.35-4.03L5.35-4.03Q6.59-4.03 7.47-4.91L7.47-4.91Q8.33-5.77 8.33-7.01L8.33-7.01Q8.33-8.25 7.47-9.12L7.47-9.12Q6.59-9.99 5.35-9.99Z" transform="translate(9.999208984375 17) " fill="rgb(40, 0, 123)" stroke="rgb(40, 0, 123)" stroke-width="0.033" data-glyph-w="10.7099609375" data-glyph-h="20.77732421875" data-glyph-ascender="16.7075390625" data-glyph-descender="-4.06978515625" data-kerning="0"></path><path d="M2.38-7.01Q2.38-5.77 3.25-4.91L3.25-4.91Q4.12-4.03 5.35-4.03L5.35-4.03Q6.90-4.03 7.80-5.31L7.80-5.31L9.42-4.17Q7.94-2.04 5.35-2.04L5.35-2.04Q3.30-2.04 1.84-3.51L1.84-3.51Q0.39-4.96 0.39-7.01L0.39-7.01Q0.39-9.07 1.84-10.52L1.84-10.52Q3.30-11.98 5.35-11.98L5.35-11.98Q7.94-11.98 9.42-9.86L9.42-9.86L7.80-8.72Q6.90-9.99 5.35-9.99L5.35-9.99Q4.12-9.99 3.25-9.12L3.25-9.12Q2.38-8.25 2.38-7.01L2.38-7.01Z" transform="translate(20.709169921875002 17) " fill="rgb(40, 0, 123)" stroke="rgb(40, 0, 123)" stroke-width="0.033" data-glyph-w="9.81421875" data-glyph-h="20.77732421875" data-glyph-ascender="16.7075390625" data-glyph-descender="-4.06978515625" data-kerning="0"></path><path d="M5.11-9.99Q3.98-9.99 3.17-9.12L3.17-9.12Q2.38-8.25 2.38-7.01L2.38-7.01Q2.38-5.77 3.17-4.91L3.17-4.91Q3.98-4.03 5.11-4.03L5.11-4.03Q6.24-4.03 7.04-4.91L7.04-4.91Q7.84-5.77 7.84-7.01L7.84-7.01Q7.84-8.25 7.04-9.12L7.04-9.12Q6.24-9.99 5.11-9.99L5.11-9.99ZM7.84-10.99L7.84-10.99L7.84-11.73L9.82-11.73L9.82-2.30L7.84-2.30L7.84-3.03Q6.63-2.04 5.04-2.04L5.04-2.04Q3.12-2.04 1.75-3.51L1.75-3.51Q0.39-4.96 0.39-7.01L0.39-7.01Q0.39-9.07 1.75-10.52L1.75-10.52Q3.12-11.98 5.04-11.98L5.04-11.98Q6.63-11.98 7.84-10.99Z" transform="translate(30.523388671875004 17) " fill="rgb(40, 0, 123)" stroke="rgb(40, 0, 123)" stroke-width="0.033" data-glyph-w="10.505498046875001" data-glyph-h="20.77732421875" data-glyph-ascender="16.7075390625" data-glyph-descender="-4.06978515625" data-kerning="0"></path><path d="M2.12-11.73L0.39-11.73L0.39-9.75L2.12-9.75L2.12-5.28Q2.12-4.04 3.00-3.16L3.00-3.16Q3.88-2.30 5.10-2.30L5.10-2.30L6.35-2.30L6.35-4.28L5.10-4.28Q4.69-4.28 4.40-4.58L4.40-4.58Q4.11-4.86 4.11-5.28L4.11-5.28L4.11-9.75L6.35-9.75L6.35-11.73L4.11-11.73L4.11-14.71L2.12-14.71L2.12-11.73Z" transform="translate(41.02888671875 17) " fill="rgb(40, 0, 123)" stroke="rgb(40, 0, 123)" stroke-width="0.033" data-glyph-w="6.737539062500001" data-glyph-h="20.77732421875" data-glyph-ascender="16.7075390625" data-glyph-descender="-4.06978515625" data-kerning="0"></path><path d="M10.22-6.02L2.54-6.02Q2.76-5.40 3.25-4.91L3.25-4.91Q4.12-4.03 5.35-4.03L5.35-4.03Q6.90-4.03 7.80-5.31L7.80-5.31L9.42-4.17Q7.94-2.04 5.35-2.04L5.35-2.04Q3.30-2.04 1.85-3.51L1.85-3.51Q0.39-4.96 0.39-7.01L0.39-7.01Q0.39-9.07 1.85-10.52L1.85-10.52Q3.30-11.98 5.35-11.98L5.35-11.98Q7.42-11.98 8.87-10.52L8.87-10.52Q10.32-9.07 10.32-7.01L10.32-7.01Q10.32-6.51 10.22-6.02L10.22-6.02ZM2.54-8.00L8.18-8.00Q7.96-8.63 7.47-9.12L7.47-9.12Q6.59-9.99 5.35-9.99L5.35-9.99Q4.12-9.99 3.25-9.12L3.25-9.12Q2.76-8.63 2.54-8.00L2.54-8.00Z" transform="translate(47.76642578125 17) " fill="rgb(40, 0, 123)" stroke="rgb(40, 0, 123)" stroke-width="0.033" data-glyph-w="10.7099609375" data-glyph-h="20.77732421875" data-glyph-ascender="16.7075390625" data-glyph-descender="-4.06978515625" data-kerning="0"></path><path d="M0,0Z" transform="translate(58.47638671875 17) " fill="rgb(40, 0, 123)" stroke="rgb(40, 0, 123)" stroke-width="0.033" data-glyph-w="4.9460546875" data-glyph-h="20.77732421875" data-glyph-ascender="16.7075390625" data-glyph-descender="-4.06978515625" data-kerning="0"></path><path d="M2.38-11.73L2.38-13.22Q2.38-14.46 3.25-15.32L3.25-15.32Q4.13-16.20 5.35-16.20L5.35-16.20L7.34-16.20L7.34-14.22L5.35-14.22Q4.95-14.22 4.65-13.92L4.65-13.92Q4.36-13.63 4.36-13.22L4.36-13.22L4.36-11.73L7.34-11.73L7.34-9.75L4.36-9.75L4.36-2.30L2.38-2.30L2.38-9.75L0.39-9.75L0.39-11.73L2.38-11.73Z" transform="translate(63.42244140625 17) " fill="rgb(40, 0, 123)" stroke="rgb(40, 0, 123)" stroke-width="0.033" data-glyph-w="7.73064453125" data-glyph-h="20.77732421875" data-glyph-ascender="16.7075390625" data-glyph-descender="-4.06978515625" data-kerning="0"></path><path d="M5.11-9.99Q3.98-9.99 3.17-9.12L3.17-9.12Q2.38-8.25 2.38-7.01L2.38-7.01Q2.38-5.77 3.17-4.91L3.17-4.91Q3.98-4.03 5.11-4.03L5.11-4.03Q6.24-4.03 7.04-4.91L7.04-4.91Q7.84-5.77 7.84-7.01L7.84-7.01Q7.84-8.25 7.04-9.12L7.04-9.12Q6.24-9.99 5.11-9.99L5.11-9.99ZM7.84-10.99L7.84-10.99L7.84-11.73L9.82-11.73L9.82-2.30L7.84-2.30L7.84-3.03Q6.63-2.04 5.04-2.04L5.04-2.04Q3.12-2.04 1.75-3.51L1.75-3.51Q0.39-4.96 0.39-7.01L0.39-7.01Q0.39-9.07 1.75-10.52L1.75-10.52Q3.12-11.98 5.04-11.98L5.04-11.98Q6.63-11.98 7.84-10.99Z" transform="translate(71.15308593750001 17) " fill="rgb(40, 0, 123)" stroke="rgb(40, 0, 123)" stroke-width="0.033" data-glyph-w="10.505498046875001" data-glyph-h="20.77732421875" data-glyph-ascender="16.7075390625" data-glyph-descender="-4.06978515625" data-kerning="0"></path><path d="M7.63-11.73L7.63-6.48Q7.63-5.46 6.91-4.74L6.91-4.74Q6.18-4.02 5.15-4.02L5.15-4.02Q4.13-4.02 3.40-4.74L3.40-4.74Q2.67-5.46 2.67-6.48L2.67-6.48L2.67-11.73L0.68-11.73L0.68-6.24Q0.68-4.51 1.92-3.27L1.92-3.27Q3.15-2.04 4.91-2.04L4.91-2.04Q6.47-2.04 7.63-3.04L7.63-3.04L7.63-2.30L9.62-2.30L9.62-11.73L7.63-11.73Z" transform="translate(81.65858398437501 17) " fill="rgb(40, 0, 123)" stroke="rgb(40, 0, 123)" stroke-width="0.033" data-glyph-w="10.30103515625" data-glyph-h="20.77732421875" data-glyph-ascender="16.7075390625" data-glyph-descender="-4.06978515625" data-kerning="0"></path><path d="M2.67-2.30L2.67-16.20L0.68-16.20L0.68-2.30L2.67-2.30Z" transform="translate(91.95961914062501 17) " fill="rgb(40, 0, 123)" stroke="rgb(40, 0, 123)" stroke-width="0.033" data-glyph-w="3.3492968750000003" data-glyph-h="20.77732421875" data-glyph-ascender="16.7075390625" data-glyph-descender="-4.06978515625" data-kerning="0"></path><path d="M2.12-11.73L0.39-11.73L0.39-9.75L2.12-9.75L2.12-5.28Q2.12-4.04 3.00-3.16L3.00-3.16Q3.88-2.30 5.10-2.30L5.10-2.30L6.35-2.30L6.35-4.28L5.10-4.28Q4.69-4.28 4.40-4.58L4.40-4.58Q4.11-4.86 4.11-5.28L4.11-5.28L4.11-9.75L6.35-9.75L6.35-11.73L4.11-11.73L4.11-14.71L2.12-14.71L2.12-11.73Z" transform="translate(95.30891601562502 17) " fill="rgb(40, 0, 123)" stroke="rgb(40, 0, 123)" stroke-width="0.033" data-glyph-w="6.737539062500001" data-glyph-h="20.77732421875" data-glyph-ascender="16.7075390625" data-glyph-descender="-4.06978515625" data-kerning="0"></path><path d="M4.71-11.98Q6.08-11.98 7.26-11.26L7.26-11.26Q8.41-10.58 8.74-9.64L8.74-9.64L6.82-9.12Q6.65-9.43 6.06-9.70L6.06-9.70Q5.40-9.99 4.71-9.99L4.71-9.99Q2.84-9.99 2.84-9.12L2.84-9.12Q2.84-8.64 3.84-8.37L3.84-8.37Q4.17-8.28 4.85-8.15L4.85-8.15Q5.71-7.98 6.01-7.92L6.01-7.92Q7.46-7.59 8.19-7.08L8.19-7.08Q9.18-6.37 9.18-5.15L9.18-5.15Q9.18-3.69 7.99-2.85L7.99-2.85Q6.85-2.04 4.96-2.04L4.96-2.04Q3.26-2.04 1.97-2.85L1.97-2.85Q0.70-3.64 0.39-4.80L0.39-4.80L2.35-5.15Q2.53-4.68 3.28-4.36L3.28-4.36Q4.03-4.03 4.96-4.03L4.96-4.03Q7.20-4.03 7.20-5.15L7.20-5.15Q7.20-5.71 6.20-6.00L6.20-6.00Q6.29-5.97 4.02-6.44L4.02-6.44Q2.56-6.74 1.85-7.22L1.85-7.22Q0.86-7.91 0.86-9.12L0.86-9.12Q0.86-10.48 1.96-11.25L1.96-11.25Q3.00-11.98 4.71-11.98L4.71-11.98Z" transform="translate(102.04645507812502 17) " fill="rgb(40, 0, 123)" stroke="rgb(40, 0, 123)" stroke-width="0.033" data-glyph-w="9.570810546875" data-glyph-h="20.77732421875" data-glyph-ascender="16.7075390625" data-glyph-descender="-4.06978515625" data-kerning="0"></path><path d="M0,0Z" transform="translate(111.61726562500002 17) " fill="rgb(40, 0, 123)" stroke="rgb(40, 0, 123)" stroke-width="0.033" data-glyph-w="4.9460546875" data-glyph-h="20.77732421875" data-glyph-ascender="16.7075390625" data-glyph-descender="-4.06978515625" data-kerning="0"></path><path d="M10.22-6.02L2.54-6.02Q2.76-5.40 3.25-4.91L3.25-4.91Q4.12-4.03 5.35-4.03L5.35-4.03Q6.90-4.03 7.80-5.31L7.80-5.31L9.42-4.17Q7.94-2.04 5.35-2.04L5.35-2.04Q3.30-2.04 1.85-3.51L1.85-3.51Q0.39-4.96 0.39-7.01L0.39-7.01Q0.39-9.07 1.85-10.52L1.85-10.52Q3.30-11.98 5.35-11.98L5.35-11.98Q7.42-11.98 8.87-10.52L8.87-10.52Q10.32-9.07 10.32-7.01L10.32-7.01Q10.32-6.51 10.22-6.02L10.22-6.02ZM2.54-8.00L8.18-8.00Q7.96-8.63 7.47-9.12L7.47-9.12Q6.59-9.99 5.35-9.99L5.35-9.99Q4.12-9.99 3.25-9.12L3.25-9.12Q2.76-8.63 2.54-8.00L2.54-8.00Z" transform="translate(116.56332031250001 17) " fill="rgb(40, 0, 123)" stroke="rgb(40, 0, 123)" stroke-width="0.033" data-glyph-w="10.7099609375" data-glyph-h="20.77732421875" data-glyph-ascender="16.7075390625" data-glyph-descender="-4.06978515625" data-kerning="0"></path><path d="M5.11-9.99Q3.98-9.99 3.17-9.12L3.17-9.12Q2.38-8.25 2.38-7.01L2.38-7.01Q2.38-5.77 3.17-4.91L3.17-4.91Q3.98-4.03 5.11-4.03L5.11-4.03Q6.24-4.03 7.04-4.91L7.04-4.91Q7.84-5.77 7.84-7.01L7.84-7.01Q7.84-8.25 7.04-9.12L7.04-9.12Q6.24-9.99 5.11-9.99L5.11-9.99ZM7.84-10.99L7.84-10.99L7.84-11.73L9.82-11.73L9.82-2.30L7.84-2.30L7.84-3.03Q6.63-2.04 5.04-2.04L5.04-2.04Q3.12-2.04 1.75-3.51L1.75-3.51Q0.39-4.96 0.39-7.01L0.39-7.01Q0.39-9.07 1.75-10.52L1.75-10.52Q3.12-11.98 5.04-11.98L5.04-11.98Q6.63-11.98 7.84-10.99Z" transform="translate(127.27328125000001 17) " fill="rgb(40, 0, 123)" stroke="rgb(40, 0, 123)" stroke-width="0.033" data-glyph-w="10.505498046875001" data-glyph-h="20.77732421875" data-glyph-ascender="16.7075390625" data-glyph-descender="-4.06978515625" data-kerning="0"></path><path d="M4.71-11.98Q6.08-11.98 7.26-11.26L7.26-11.26Q8.41-10.58 8.74-9.64L8.74-9.64L6.82-9.12Q6.65-9.43 6.06-9.70L6.06-9.70Q5.40-9.99 4.71-9.99L4.71-9.99Q2.84-9.99 2.84-9.12L2.84-9.12Q2.84-8.64 3.84-8.37L3.84-8.37Q4.17-8.28 4.85-8.15L4.85-8.15Q5.71-7.98 6.01-7.92L6.01-7.92Q7.46-7.59 8.19-7.08L8.19-7.08Q9.18-6.37 9.18-5.15L9.18-5.15Q9.18-3.69 7.99-2.85L7.99-2.85Q6.85-2.04 4.96-2.04L4.96-2.04Q3.26-2.04 1.97-2.85L1.97-2.85Q0.70-3.64 0.39-4.80L0.39-4.80L2.35-5.15Q2.53-4.68 3.28-4.36L3.28-4.36Q4.03-4.03 4.96-4.03L4.96-4.03Q7.20-4.03 7.20-5.15L7.20-5.15Q7.20-5.71 6.20-6.00L6.20-6.00Q6.29-5.97 4.02-6.44L4.02-6.44Q2.56-6.74 1.85-7.22L1.85-7.22Q0.86-7.91 0.86-9.12L0.86-9.12Q0.86-10.48 1.96-11.25L1.96-11.25Q3.00-11.98 4.71-11.98L4.71-11.98Z" transform="translate(137.778779296875 17) " fill="rgb(40, 0, 123)" stroke="rgb(40, 0, 123)" stroke-width="0.033" data-glyph-w="9.570810546875" data-glyph-h="20.77732421875" data-glyph-ascender="16.7075390625" data-glyph-descender="-4.06978515625" data-kerning="0"></path><path d="M2.68-2.30L2.68-11.73L0.69-11.73L0.69-2.30L2.68-2.30ZM1.68-16.45Q2.19-16.45 2.56-16.08L2.56-16.08Q2.92-15.72 2.92-15.21L2.92-15.21Q2.92-14.69 2.56-14.33L2.56-14.33Q2.19-13.96 1.68-13.96L1.68-13.96Q1.17-13.96 0.80-14.33L0.80-14.33Q0.44-14.69 0.44-15.21L0.44-15.21Q0.44-15.72 0.80-16.08L0.80-16.08Q1.17-16.45 1.68-16.45L1.68-16.45Z" transform="translate(147.34958984375 17) " fill="rgb(40, 0, 123)" stroke="rgb(40, 0, 123)" stroke-width="0.033" data-glyph-w="3.3492968750000003" data-glyph-h="20.77732421875" data-glyph-ascender="16.7075390625" data-glyph-descender="-4.06978515625" data-kerning="0"></path><path d="M2.67-2.30L2.67-16.20L0.68-16.20L0.68-2.30L2.67-2.30Z" transform="translate(150.69888671875 17) " fill="rgb(40, 0, 123)" stroke="rgb(40, 0, 123)" stroke-width="0.033" data-glyph-w="3.3492968750000003" data-glyph-h="20.77732421875" data-glyph-ascender="16.7075390625" data-glyph-descender="-4.06978515625" data-kerning="0"></path><path d="M2.82-0.34L2.82-0.34L3.71-2.54L0-11.73L2.14-11.73L4.78-5.20L7.43-11.73L9.57-11.73L4.66 0.41Q4.17 1.65 2.93 2.17L2.93 2.17Q1.70 2.69 0.46 2.19L0.46 2.19Q0.26 2.11 0.08 2.01L0.08 2.01L0.84 0.12Q1.00 0.26 1.21 0.35L1.21 0.35Q1.68 0.54 2.15 0.34L2.15 0.34Q2.63 0.14 2.82-0.34Z" transform="translate(154.04818359375 17) " fill="rgb(40, 0, 123)" stroke="rgb(40, 0, 123)" stroke-width="0.033" data-glyph-w="9.570810546875" data-glyph-h="20.77732421875" data-glyph-ascender="16.7075390625" data-glyph-descender="-4.06978515625" data-kerning="0"></path><path d="M0,0Z" transform="translate(163.618994140625 17) " fill="rgb(40, 0, 123)" stroke="rgb(40, 0, 123)" stroke-width="0.033" data-glyph-w="4.9460546875" data-glyph-h="20.77732421875" data-glyph-ascender="16.7075390625" data-glyph-descender="-4.06978515625" data-kerning="0"></path><path d="M2.97-16.20L2.97-6.77L0.98-6.77L0.98-16.20L2.97-16.20ZM1.98-4.53Q2.48-4.53 2.85-4.17L2.85-4.17Q3.21-3.80 3.21-3.29L3.21-3.29Q3.21-2.77 2.85-2.40L2.85-2.40Q2.48-2.04 1.98-2.04L1.98-2.04Q1.46-2.04 1.09-2.40L1.09-2.40Q0.73-2.77 0.73-3.29L0.73-3.29Q0.73-3.80 1.09-4.17L1.09-4.17Q1.46-4.53 1.98-4.53L1.98-4.53Z" transform="translate(168.56504882812501 17) " fill="rgb(40, 0, 123)" stroke="rgb(40, 0, 123)" stroke-width="0.033" data-glyph-w="3.9334765625" data-glyph-h="20.77732421875" data-glyph-ascender="16.7075390625" data-glyph-descender="-4.06978515625" data-kerning="0"></path></g></svg>
                  </g>
                </g>
                <g id="shape_YJmJFVqADP" ref="shape_YJmJFVqADP" key="shape_YJmJFVqADP" mask="">
                  <g transform="translate(160,226.00674437687) rotate(0,51.283152234626,69.645777319578) scale(1,1)" style="opacity: 1;" filter="">
                    <!--普通元素-->
                    <svg version="1.1" id="图层_1" xmlns="http://www.w3.org/2000/svg" xmlns:xlink="http://www.w3.org/1999/xlink" x="0px" y="0px" width="102.56630446925" height="139.29155463916" viewBox="0 0 318.1 432" style="enable-background:new 0 0 318.1 432;" xml:space="preserve" class="style-removed" preserveAspectRatio="none" data-parent="shape_YJmJFVqADP">

<g id="shape_Pbk265qhEy_ZIBpsYJfEM" transform="translate(120,189.64317165099) rotate(0,70.816161189192,98.827010461797) scale(1,1)">
	<g>
		<polygon points="149.8,6.2 76.1,49.5 53.6,37.4 53.6,-48.4 		" fill="#07C79C" stroke-width="0"></polygon>
		<polygon points="53.6,-147.8 53.6,-48.4 -25.9,-5.3 76.1,49.5 -9.1,99.4 -106.6,44.6 -106.6,-52.6 		" fill="#28007B" stroke-width="0"></polygon>
		<polygon points="149.8,6.2 149.8,106.1 -61.3,226.8 -61.3,130.1 68.9,53.7 		" fill="#109594" stroke-width="0"></polygon>
		<polygon points="72.8,-65.9 72.8,-168.5 156,-117.2 		" fill="#02F9A5" stroke-width="0"></polygon>
		<polygon points="176.7,-109.5 176.7,-26.3 109.1,-68 		" fill="#02F9A5" stroke-width="0"></polygon>
	</g>
</g>
</svg>
                  </g>
                </g>
      </svg>